<svg xmlns="http://www.w3.org/2000/svg" width="24" height="24" fill="none"><path fill="#D7282F" d="M17.548 9.088h-6.683A1.4 1.4 0 0 1 9.467 7.69V4.398A1.4 1.4 0 0 1 10.865 3h6.683a1.4 1.4 0 0 1 1.398 1.398v3.301a1.4 1.4 0 0 1-1.398 1.398v-.01Zm-6.674-5.006a.32.32 0 0 0-.316.316v3.301a.32.32 0 0 0 .316.316h6.683a.314.314 0 0 0 .316-.316V4.398a.32.32 0 0 0-.316-.316h-6.683Z"/><path fill="#D7282F" d="M16.718 6.535a.485.485 0 0 1-.487-.487c0-.27.216-.487.487-.487.27 0 .487.217.487.487a.484.484 0 0 1-.487.487Zm-5.033 0a.485.485 0 0 1-.487-.487c0-.27.217-.487.487-.487.271 0 .487.217.487.487a.484.484 0 0 1-.487.487Zm2.517.749c-.686 0-1.236-.56-1.236-1.236 0-.676.56-1.235 1.236-1.235.676 0 1.235.559 1.235 1.235 0 .677-.559 1.236-1.235 1.236Zm0-1.57a.333.333 0 1 0-.002.667.333.333 0 0 0 .002-.666ZM6.707 15.04a.54.54 0 0 1-.451-.839l2.327-3.472a1.786 1.786 0 0 1 1.497-.802h2.778a1.81 1.81 0 0 1 1.804 1.803c0 .993-.812 1.84-1.804 1.84h-.866a.543.543 0 0 1-.541-.54c0-.298.243-.542.541-.542h.866a.714.714 0 0 0 .712-.712c0-.433-.324-.758-.712-.758H10.08a.699.699 0 0 0-.595.325l-2.327 3.472a.562.562 0 0 1-.451.244v-.018Z"/><path fill="#D7282F" d="M10.477 18.72a.52.52 0 0 1-.379-.162.55.55 0 0 1 0-.767l1.1-1.1a1.818 1.818 0 0 1 1.272-.523h3.003c.19 0 .37-.072.496-.207l4.131-4.023a.723.723 0 0 0 .217-.514.688.688 0 0 0-.217-.514l-.099-.1a.71.71 0 0 0-1.001 0l-2.309 2.237a1.797 1.797 0 0 1-1.254.505h-3.85a.543.543 0 0 1-.542-.54c0-.298.244-.542.541-.542h3.851c.19 0 .361-.072.497-.198l2.308-2.237a1.805 1.805 0 0 1 2.517.018l.099.1a1.803 1.803 0 0 1-.009 2.57l-4.13 4.022a1.822 1.822 0 0 1-1.255.514h-3.003a.71.71 0 0 0-.505.208l-1.1 1.1a.534.534 0 0 1-.38.162v-.009Z"/><path fill="#D7282F" d="m10.883 18.54-4.654-4.654a1.143 1.143 0 0 0-1.597 0l-1.298 1.299a1.098 1.098 0 0 0-.334.793c0 .298.117.596.334.803l3.833 3.833.036.046.19.18.595.595c.216.217.496.334.802.334.307 0 .587-.117.794-.334l1.299-1.299a1.127 1.127 0 0 0 0-1.596Zm-2.129 2.129-.568-.56-.027-.036L4.1 15.951l1.371-1.298 4.654 4.717-1.37 1.299Z"/></svg>